<svg width="80" height="80" viewBox="0 0 80 80" fill="none" xmlns="http://www.w3.org/2000/svg">
<g id="feather:check-circle">
<path id="Vector (Stroke)" fill-rule="evenodd" clip-rule="evenodd" d="M52.1425 12.7303C46.2661 10.112 39.7008 9.46331 33.4256 10.8811C27.1505 12.2989 21.5017 15.7072 17.3219 20.5976C13.142 25.488 10.655 31.5986 10.2317 38.018C9.80837 44.4374 11.4715 50.8216 14.973 56.2186C18.4746 61.6155 23.6268 65.736 29.6615 67.9655C35.6962 70.195 42.2898 70.414 48.4592 68.59C54.6285 66.7659 60.0429 62.9964 63.8949 57.8438C67.7468 52.6911 69.83 46.4313 69.8337 39.998V36.9333C69.8337 35.0003 71.4007 33.4333 73.3337 33.4333C75.2667 33.4333 76.8337 35.0003 76.8337 36.9333V40.002C76.8291 47.9448 74.2572 55.6734 69.5014 62.0351C64.7456 68.3967 58.0608 73.0506 50.4439 75.3027C42.827 77.5548 34.6862 77.2843 27.2356 74.5317C19.785 71.7791 13.4238 66.6918 9.1007 60.0285C4.77759 53.3653 2.72422 45.483 3.24684 37.5574C3.76945 29.6318 6.84004 22.0875 12.0007 16.0496C17.1613 10.0116 24.1354 5.80366 31.883 4.0532C39.6305 2.30275 47.7363 3.10361 54.9915 6.33633C56.7572 7.12306 57.5507 9.19218 56.764 10.9578C55.9773 12.7235 53.9082 13.5171 52.1425 12.7303ZM75.8073 10.8572C77.1748 12.2234 77.1759 14.4395 75.8098 15.807L42.4765 49.1736C41.8202 49.8306 40.9298 50.1998 40.0012 50.2C39.0727 50.2002 38.1821 49.8315 37.5255 49.1749L27.5255 39.1749C26.1586 37.808 26.1586 35.592 27.5255 34.2251C28.8923 32.8583 31.1084 32.8583 32.4752 34.2251L39.9991 41.749L70.8576 10.8597C72.2237 9.49218 74.4398 9.49107 75.8073 10.8572Z" fill="#0071BB"/>
</g>
</svg>
